<svg width="200" height="58" viewBox="0 0 200 58" fill="none" xmlns="http://www.w3.org/2000/svg">
<path d="M50.1679 8.64384C45.1199 3.42319 38.1539 0.461884 30.1446 0.461884C14.824 0.461884 2.28834 12.9976 2.28834 28.3181C2.28834 35.4567 5.0732 42.4227 9.94861 47.6472C12.2118 45.5566 14.6514 43.6425 17.2598 41.901C17.6089 41.7246 17.958 41.3793 18.307 41.2029C18.4796 41.0303 18.6561 41.0303 18.8287 40.8577C19.0013 40.6812 19.1778 40.6812 19.3504 40.5086C17.2598 38.7671 15.6948 36.3275 14.9966 33.5426C14.9736 33.4736 14.8586 33.1245 14.6514 32.4993H57.3065C57.483 31.2794 57.6556 29.887 57.6556 28.3181C57.6556 20.6579 55.0434 13.6957 50.1679 8.64384V8.64384ZM14.6514 23.9682C14.755 23.3391 14.8125 22.9901 14.824 22.921C16.2165 16.8296 23.1824 11.6051 30.1446 11.6051H30.321C37.2832 11.6051 43.3784 16.1315 45.469 22.7484C45.492 22.8175 45.6071 23.1665 45.8142 23.7918H14.6514V23.9682V23.9682Z" fill="#E97E13"/>
<path d="M33.455 56.0977C32.5842 55.576 31.7135 55.2269 30.6701 54.8817C27.5362 53.6619 24.2258 52.7911 20.7428 52.6185C19.0013 52.442 17.4363 52.4421 15.6948 52.4421C15.1731 52.093 14.6514 51.7478 14.1259 51.5713C16.2165 51.0496 18.4796 50.7006 20.5702 50.5279C24.2258 50.1789 27.8814 50.5279 31.537 51.2222C34.8474 51.7478 37.8087 52.7911 40.5936 54.1835C38.3304 55.0543 35.8908 55.7524 33.455 56.0977V56.0977Z" fill="#237814"/>
<path d="M44.4218 52.093C44.2492 51.9204 44.0765 51.9204 43.9001 51.9204C40.4171 50.3553 36.7615 49.1355 32.9333 48.6138C31.1918 48.2648 29.1012 48.2648 27.1871 48.2648C25.2692 48.2648 23.3551 48.4374 21.2645 48.7864C18.4796 49.1355 15.8674 49.8298 13.259 50.877C12.9099 50.7006 12.7335 50.3553 12.3882 50.1789C14.9966 48.7864 17.7853 47.5666 20.7428 46.6959C22.6608 46.1742 24.7475 45.6525 26.838 45.3035C28.9286 44.9544 31.0153 44.7818 33.1059 44.9544C37.2832 44.9544 41.6369 45.6525 45.6416 46.8723C46.6849 47.2214 47.7321 47.5666 48.7755 47.9157C49.1246 47.9157 49.2972 48.0883 49.4736 48.0883C47.9048 49.6572 46.3397 50.877 44.4218 52.093Z" fill="#237814"/>
<path d="M52.0859 45.1308C51.2151 44.7818 50.517 44.6092 49.6463 44.2601C49.489 44.2064 48.2346 43.7883 48.0812 43.7384C47.5557 43.562 47.034 43.562 46.5123 43.3893C44.4218 42.8677 42.335 42.5186 40.2445 42.346C39.7228 42.346 39.2011 42.346 38.6756 42.1695H37.1106H34.6748H33.804C32.8604 42.2731 32.3387 42.3345 32.2351 42.346C31.7135 42.346 31.1918 42.5186 30.6701 42.5186C30.5819 42.5378 29.8837 42.6759 29.7994 42.6912C29.4503 42.6912 29.2738 42.6912 28.9286 42.8677C28.7867 42.883 27.6743 43.0249 27.5362 43.0403C27.1871 43.0403 27.0107 43.2167 26.6654 43.2167C26.6041 43.2282 26.3164 43.2858 25.7947 43.3893C24.8549 43.5965 24.3294 43.7154 24.2258 43.7384C23.7041 43.911 23.1824 44.0837 22.6608 44.2601C22.1352 44.4327 21.6136 44.6092 21.0919 44.7818C17.7853 46.0016 14.6514 47.5666 11.6901 49.4846C11.5175 49.3081 11.1684 49.1355 10.992 48.9591C13.7807 46.5233 16.9146 44.6092 20.2211 42.8677C20.7428 42.5186 21.2645 42.346 21.79 42.1695C22.3117 41.9969 22.8334 41.6479 23.3551 41.4752C23.4586 41.4292 23.9841 41.1952 24.9239 40.7771C25.4456 40.57 25.7333 40.4511 25.7947 40.428C26.1399 40.2554 26.3164 40.2554 26.6654 40.0828C26.838 40.0291 28.2305 39.611 28.4031 39.5573C28.7522 39.3847 28.9286 39.3847 29.2738 39.3847C29.3621 39.3655 30.0602 39.2274 30.1446 39.2121C30.6701 39.0356 31.1918 38.863 31.8861 38.863C32.005 38.84 32.5842 38.7211 33.6276 38.5139L34.4983 38.3413L35.3691 38.1649C36.4124 38.0613 36.9955 38.0038 37.1106 37.9923C37.6322 37.9923 38.3304 37.8158 38.8521 37.8158C39.3737 37.8158 40.0719 37.6432 40.5936 37.6432C43.0293 37.6432 45.2925 37.6432 47.7321 37.9923C48.2538 37.9923 48.9481 38.1649 49.4736 38.1649C49.6463 38.1994 51.0387 38.4794 51.2151 38.5139C52.4311 38.6865 53.6509 39.0356 54.6943 39.2121C54.8707 39.2121 55.0434 39.2121 55.3924 39.3847C54.5217 41.4752 53.4783 43.3893 52.0859 45.1308V45.1308Z" fill="#237814"/>
<path d="M188.413 8.39451V16.5765V37.9922V46.3506H196.944V37.9922V16.5765V8.39451V0.385162H188.413V8.39451Z" fill="#237814"/>
<path d="M85.1666 20.4047C85.1666 20.4047 84.2959 20.2321 83.076 20.2321C79.4204 20.2321 75.2393 22.3226 73.6743 27.3707C73.1526 29.1122 72.9761 30.8537 72.9761 32.9442V46.5233H64.4451V12.3992H72.9761V17.7963C74.7176 13.4425 78.5497 11.8737 83.5977 11.8737C84.2959 11.8737 85.1666 12.0501 85.1666 12.0501V20.4047V20.4047Z" fill="#237814"/>
<path d="M121.381 37.8158V46.5233H113.195V40.7771H113.023C111.458 44.2601 107.104 47.2214 101.185 47.2214C93.8702 47.2214 89.3439 43.5619 89.3439 34.1602V20.9302V12.2227H97.7023V32.5951C97.7023 36.7724 98.7457 39.5573 102.923 39.5573C109.018 39.5573 112.501 34.1602 112.501 28.0688V12.3992H121.381V37.8158V37.8158Z" fill="#237814"/>
<path d="M148.888 20.4047C148.888 20.4047 148.018 20.2321 146.802 20.2321C143.146 20.2321 138.965 22.3226 137.4 27.3707C136.874 29.1122 136.702 30.8537 136.702 32.9442V46.5233H128.343V12.3992H136.874V17.7963C138.616 13.4425 142.448 11.8737 147.496 11.8737C148.018 11.8737 148.888 12.0501 148.888 12.0501V20.4047V20.4047Z" fill="#237814"/>
<path d="M154.113 22.1462H162.122C162.122 19.3613 164.558 17.9689 166.649 17.9689C170.653 17.9689 172.916 19.7104 172.916 24.7584V25.1075H171.873C166.3 25.1075 151.501 25.9782 151.501 36.7724C151.501 43.562 157.074 47.394 163.166 47.394C170.83 47.394 173.438 41.2988 173.438 41.2988H173.615V46.5233H181.447V37.8158V25.1075C181.447 17.4472 178.314 11.5284 166.649 11.5284C158.639 11.5284 154.113 15.8783 154.113 22.1462V22.1462ZM173.093 31.7244C173.093 35.9017 169.783 40.7771 165.256 40.7771C161.773 40.7771 160.032 38.6866 160.032 36.4234C160.032 31.7244 166.998 31.0263 171.524 31.0263H172.916V31.7244H173.093V31.7244Z" fill="#237814"/>
</svg>
